# xmcd CD database file
#
# Track frame offsets:
#	150
#	27597
#	56402
#	75790
#	101124
#	117366
#	134853
#	153289
#	173774
#	197902
#	219011
#
# Disc length: 3245 seconds
#
# Revision: 0
# Processed by: cddbd v1.5.1PL0 Copyright (c) Steve Scherf et al.
# Submitted via: CDex 1.50
#
DISCID=900cab0b
DTITLE=Martina - Maciel - Pichincha Latin Jazz
DYEAR=2004
DGENRE=Jazz
TTITLE0=A night in Englewood
TTITLE1=Sugar
TTITLE2=Like night and day
TTITLE3=Christmas without you
TTITLE4=Nancy
TTITLE5=Guataca city
TTITLE6=South of the waltz
TTITLE7=Sambito
TTITLE8=Catalonian nights
TTITLE9=Misty
TTITLE10=Chick
EXTD=YEAR: 2004
EXTT0=
EXTT1=
EXTT2=
EXTT3=
EXTT4=
EXTT5=
EXTT6=
EXTT7=
EXTT8=
EXTT9=
EXTT10=
PLAYORDER=
